<?xml version="1.0" encoding="UTF-8"?>
<svg version="1.1" xmlns="http://www.w3.org/2000/svg" width="500" height="500">
<path d="M0 0 C0.74918701 0.16145508 1.49837402 0.32291016 2.27026367 0.48925781 C6.98605181 1.57189724 11.1978343 3.13148094 15.625 5.125 C17.64363521 5.86023007 19.66447643 6.58943222 21.6875 7.3125 C33.4102239 11.80778104 43.70750266 18.46886942 53.625 26.125 C54.58277344 26.85460937 55.54054688 27.58421875 56.52734375 28.3359375 C61.7607459 32.40228363 61.7607459 32.40228363 63.625 34.125 C63.625 34.785 63.625 35.445 63.625 36.125 C64.945 36.785 66.265 37.445 67.625 38.125 C67.625 38.785 67.625 39.445 67.625 40.125 C68.285 40.125 68.945 40.125 69.625 40.125 C69.625 40.785 69.625 41.445 69.625 42.125 C70.285 42.125 70.945 42.125 71.625 42.125 C73.42661126 44.14802139 75.09743545 46.17204609 76.75 48.3125 C77.24064941 48.94381836 77.73129883 49.57513672 78.23681641 50.22558594 C91.8470399 68.0204983 99.99455234 87.33465809 104.625 109.125 C104.88627686 110.32515747 104.88627686 110.32515747 105.15283203 111.54956055 C111.37772894 145.50325106 102.37489125 181.07313626 83.18261719 209.34399414 C75.93209662 219.71508189 67.04007868 230.78103427 56.625 238.125 C55.965 238.125 55.305 238.125 54.625 238.125 C54.625 238.785 54.625 239.445 54.625 240.125 C52.49228092 241.77356733 50.37415503 243.27403533 48.125 244.75 C47.11264282 245.41660645 47.11264282 245.41660645 46.07983398 246.09667969 C29.96020463 256.49451979 12.49500724 263.69633202 -6.375 267.125 C-7.11266602 267.29628418 -7.85033203 267.46756836 -8.61035156 267.64404297 C-26.52675676 270.76090258 -48.02261497 269.16727621 -65.375 264.125 C-66.50881104 263.81151611 -66.50881104 263.81151611 -67.66552734 263.49169922 C-84.4201586 258.77382689 -98.80501404 250.93072956 -112.375 240.125 C-113.365 239.465 -114.355 238.805 -115.375 238.125 C-115.375 237.465 -115.375 236.805 -115.375 236.125 C-115.90996094 235.91230469 -116.44492188 235.69960938 -116.99609375 235.48046875 C-138.94434417 222.97465119 -154.34257245 191.016716 -161.0390625 167.82519531 C-164.34939941 155.39571829 -165.30586972 142.95132538 -165.375 130.125 C-165.38789063 128.8771875 -165.40078125 127.629375 -165.4140625 126.34375 C-164.56285834 97.27185403 -151.57566804 66.92364427 -132.375 45.125 C-131.715 45.125 -131.055 45.125 -130.375 45.125 C-130.1584375 44.58359375 -129.941875 44.0421875 -129.71875 43.484375 C-127.91000003 40.30854656 -125.45776201 37.91771919 -122.875 35.375 C-122.37613281 34.86839844 -121.87726563 34.36179688 -121.36328125 33.83984375 C-117.62841139 30.125 -117.62841139 30.125 -115.375 30.125 C-115.375 29.465 -115.375 28.805 -115.375 28.125 C-113.41065277 26.50134424 -111.45694927 25.02310412 -109.375 23.5625 C-108.74924072 23.12139893 -108.12348145 22.68029785 -107.47875977 22.22583008 C-75.96957431 0.42376418 -37.68654425 -8.19623711 0 0 Z " fill="#ECEEF8" transform="translate(279.375,116.875)"/>
<path d="M0 0 C0.66 0 1.32 0 2 0 C3.80161126 2.02302139 5.47243545 4.04704609 7.125 6.1875 C7.61564941 6.81881836 8.10629883 7.45013672 8.61181641 8.10058594 C22.2220399 25.8954983 30.36955234 45.20965809 35 67 C35.17418457 67.80010498 35.34836914 68.60020996 35.52783203 69.42456055 C41.75272894 103.37825106 32.74989125 138.94813626 13.55761719 167.21899414 C6.30709662 177.59008189 -2.58492132 188.65603427 -13 196 C-13.66 196 -14.32 196 -15 196 C-15 196.66 -15 197.32 -15 198 C-17.13271908 199.64856733 -19.25084497 201.14903533 -21.5 202.625 C-22.51235718 203.29160645 -22.51235718 203.29160645 -23.54516602 203.97167969 C-39.66479537 214.36951979 -57.12999276 221.57133202 -76 225 C-76.73766602 225.17128418 -77.47533203 225.34256836 -78.23535156 225.51904297 C-96.15175676 228.63590258 -117.64761497 227.04227621 -135 222 C-136.13381104 221.68651611 -136.13381104 221.68651611 -137.29052734 221.36669922 C-148.91638234 218.09301932 -159.69830078 213.32006087 -170 207 C-170.33 206.34 -170.66 205.68 -171 205 C-167.19701263 203.52575551 -163.70878204 202.4480223 -159.7265625 203.734375 C-157.98896777 204.60036072 -156.25647885 205.47661879 -154.52734375 206.359375 C-123.41004884 220.83253542 -90.81716338 219.04341755 -59 208 C-57.73421982 207.45729313 -56.47232656 206.90541467 -55.21484375 206.34375 C-52 205 -52 205 -49 205 C-49 204.34 -49 203.68 -49 203 C-47.9790625 202.6596875 -47.9790625 202.6596875 -46.9375 202.3125 C-43.86750252 200.940799 -41.49396671 199.26971724 -38.80859375 197.27734375 C-37 196 -37 196 -33.6875 194.1875 C-28.09107889 191.09106746 -22.74863284 186.87065159 -18.328125 182.25390625 C-17 181 -17 181 -15 181 C-15 180.01 -15 179.02 -15 178 C-14.38125 177.9175 -13.7625 177.835 -13.125 177.75 C-10.28956467 176.74925812 -10.3203792 175.65451234 -9 173 C-7.65550991 171.32915029 -6.27632087 169.6859815 -4.875 168.0625 C0.09779703 162.07435695 4.09321857 155.71796546 8 149 C8.53109375 148.11441406 9.0621875 147.22882813 9.609375 146.31640625 C12.44740065 141.53614231 12.44740065 141.53614231 13 136 C13.98729863 134.98745794 14.98912484 133.98900526 16 133 C19.25881852 125.34417267 21.10637754 117.07957593 23 109 C23.2578125 107.96311035 23.515625 106.9262207 23.78125 105.85791016 C25.81100886 97.23524078 26.5103311 89.09525114 26.4375 80.25 C26.42505249 78.28546875 26.42505249 78.28546875 26.41235352 76.28125 C26.15504041 61.45415487 23.81903125 49.12870065 16.68359375 36.11328125 C14.25760815 31.62717795 12.00693916 27.03469578 11 22 C10.34 22 9.68 22 9 22 C7.97887604 20.34619117 6.98312181 18.67667805 6 17 C4.57617929 15.36300096 3.13829582 13.73814064 1.6875 12.125 C-1.97758121 7.66548406 -1.97758121 7.66548406 -2.07421875 4.796875 C-1.5 2.875 -1.5 2.875 0 0 Z " fill="#E5B6F6" transform="translate(349,159)"/>
<path d="M0 0 C0.74918701 0.16145508 1.49837402 0.32291016 2.27026367 0.48925781 C6.98605181 1.57189724 11.1978343 3.13148094 15.625 5.125 C17.64363521 5.86023007 19.66447643 6.58943222 21.6875 7.3125 C33.4102239 11.80778104 43.70750266 18.46886942 53.625 26.125 C54.58277344 26.85460937 55.54054688 27.58421875 56.52734375 28.3359375 C61.7607459 32.40228363 61.7607459 32.40228363 63.625 34.125 C63.625 34.785 63.625 35.445 63.625 36.125 C64.945 36.785 66.265 37.445 67.625 38.125 C67.625 38.785 67.625 39.445 67.625 40.125 C68.285 40.125 68.945 40.125 69.625 40.125 C69.625 42.765 69.625 45.405 69.625 48.125 C65.2763455 47.62323217 62.76009501 44.99327841 59.625 42.125 C58.625 40.79166667 57.625 39.45833333 56.625 38.125 C55.635 37.795 54.645 37.465 53.625 37.125 C51.95833333 35.45833333 50.29166667 33.79166667 48.625 32.125 C47.2328125 31.2896875 47.2328125 31.2896875 45.8125 30.4375 C45.090625 30.004375 44.36875 29.57125 43.625 29.125 C43.625 28.465 43.625 27.805 43.625 27.125 C42.2328125 26.691875 42.2328125 26.691875 40.8125 26.25 C37.625 25.125 37.625 25.125 34.625 23.125 C34.625 22.465 34.625 21.805 34.625 21.125 C33.779375 21.021875 32.93375 20.91875 32.0625 20.8125 C28.21057299 20.0421146 25.18424969 18.76225486 21.625 17.125 C21.625 16.465 21.625 15.805 21.625 15.125 C20.696875 15.228125 19.76875 15.33125 18.8125 15.4375 C15.22508447 15.45179249 12.87106687 14.41871047 9.6875 12.8125 C2.64746978 9.35147956 -4.6926538 8.31060675 -12.375 7.125 C-12.375 7.785 -12.375 8.445 -12.375 9.125 C-17.74654989 10.34580679 -17.74654989 10.34580679 -20.6875 9.3125 C-22.375 8.125 -22.375 8.125 -23.375 6.125 C-25.0765625 6.3725 -25.0765625 6.3725 -26.8125 6.625 C-30.65574134 7.11475819 -34.38590731 7.1473791 -38.25390625 7.09375 C-41.02566264 7.13458619 -43.66386496 7.56886974 -46.375 8.125 C-45.88 9.61 -45.88 9.61 -45.375 11.125 C-46.20902344 11.23457031 -47.04304688 11.34414062 -47.90234375 11.45703125 C-54.72848186 12.41878954 -60.92290151 13.74734227 -67.375 16.125 C-69.49812791 16.83892507 -71.62322381 17.54701769 -73.75 18.25 C-74.74773437 18.58257812 -75.74546875 18.91515625 -76.7734375 19.2578125 C-78.640625 19.88020833 -80.5078125 20.50260417 -82.375 21.125 C-82.375 20.135 -82.375 19.145 -82.375 18.125 C-82.890625 18.723125 -83.40625 19.32125 -83.9375 19.9375 C-87.75926634 23.3672903 -92.29865485 24.72365096 -97.0625 26.5 C-100.68872139 28.27890106 -101.94193003 29.98555487 -104.375 33.125 C-106.375 34.125 -108.375 35.125 -110.375 36.125 C-112.5332611 37.9168399 -114.59288189 39.78243596 -116.640625 41.69921875 C-118.375 43.125 -118.375 43.125 -120.375 43.125 C-120.66375 43.7025 -120.9525 44.28 -121.25 44.875 C-121.62125 45.6175 -121.9925 46.36 -122.375 47.125 C-122.643125 47.764375 -122.91125 48.40375 -123.1875 49.0625 C-124.81196424 51.88393789 -127.07088654 53.82752664 -129.375 56.125 C-135.4259919 62.95149845 -140.07826768 69.31561825 -143.4375 77.8125 C-144.375 80.125 -144.375 80.125 -145.71484375 82.171875 C-158.38139507 104.70343452 -161.03985142 136.42584474 -154.375 161.125 C-153.9109375 162.5171875 -153.9109375 162.5171875 -153.4375 163.9375 C-152.46544208 166.85367377 -151.79562189 169.69127119 -151.125 172.6875 C-148.53655711 183.25150043 -143.33651626 192.75827745 -137.625 201.9375 C-136.375 204.125 -136.375 204.125 -136.375 206.125 C-135.385 206.455 -134.395 206.785 -133.375 207.125 C-133.375 207.785 -133.375 208.445 -133.375 209.125 C-132.715 209.125 -132.055 209.125 -131.375 209.125 C-127.375 214.53676471 -127.375 214.53676471 -127.375 217.125 C-126.715 217.125 -126.055 217.125 -125.375 217.125 C-124.1484375 218.62890625 -124.1484375 218.62890625 -122.75 220.6875 C-119.01287036 225.84786083 -114.54310534 231.06896489 -108.375 233.125 C-107.23863737 234.29478507 -106.10390708 235.4662347 -104.98046875 236.6484375 C-101.78648964 239.58596573 -98.03045152 241.80749152 -94.375 244.125 C-94.705 245.115 -95.035 246.105 -95.375 247.125 C-100.15240873 247.9518592 -102.35249457 247.74224413 -106.578125 245.19140625 C-109.65327033 242.97961115 -112.59094265 240.69561295 -115.375 238.125 C-115.375 237.465 -115.375 236.805 -115.375 236.125 C-115.90996094 235.91230469 -116.44492188 235.69960938 -116.99609375 235.48046875 C-138.94434417 222.97465119 -154.34257245 191.016716 -161.0390625 167.82519531 C-164.34939941 155.39571829 -165.30586972 142.95132538 -165.375 130.125 C-165.38789063 128.8771875 -165.40078125 127.629375 -165.4140625 126.34375 C-164.56285834 97.27185403 -151.57566804 66.92364427 -132.375 45.125 C-131.715 45.125 -131.055 45.125 -130.375 45.125 C-130.1584375 44.58359375 -129.941875 44.0421875 -129.71875 43.484375 C-127.91000003 40.30854656 -125.45776201 37.91771919 -122.875 35.375 C-122.37613281 34.86839844 -121.87726563 34.36179688 -121.36328125 33.83984375 C-117.62841139 30.125 -117.62841139 30.125 -115.375 30.125 C-115.375 29.465 -115.375 28.805 -115.375 28.125 C-113.41065277 26.50134424 -111.45694927 25.02310412 -109.375 23.5625 C-108.74924072 23.12139893 -108.12348145 22.68029785 -107.47875977 22.22583008 C-75.96957431 0.42376418 -37.68654425 -8.19623711 0 0 Z " fill="#AAD0EC" transform="translate(279.375,116.875)"/>
<path d="M0 0 C2.02734375 0.7265625 2.02734375 0.7265625 4.65234375 2.6640625 C8.19080319 10.54517671 3.88966224 20.06654099 1.21484375 27.7265625 C0.62630615 29.45144897 0.62630615 29.45144897 0.02587891 31.21118164 C-1.29206994 35.05498635 -2.62894395 38.89171241 -3.97265625 42.7265625 C-4.21534241 43.42029968 -4.45802856 44.11403687 -4.70806885 44.82879639 C-7.76276993 53.55817976 -10.84386053 62.27807635 -13.93930054 70.99308777 C-15.82154737 76.29422791 -17.68430101 81.6018972 -19.53515625 86.9140625 C-21.54548526 92.68068093 -23.57911383 98.43869892 -25.62890625 104.19140625 C-26.10921409 105.54028254 -26.58952006 106.8891595 -27.06982422 108.23803711 C-27.79971735 110.28771743 -28.53004102 112.33723878 -29.26177979 114.38626099 C-31.53322404 120.74844468 -33.80122597 127.10760593 -35.87109375 133.5390625 C-36.13849365 134.36970215 -36.40589355 135.2003418 -36.68139648 136.05615234 C-37.14679526 137.52204154 -37.60299374 138.99090487 -38.04711914 140.46337891 C-39.35490231 144.60111051 -40.88404285 147.64936726 -43.97265625 150.7265625 C-48.37966314 152.46532704 -52.16232593 152.02510525 -56.53515625 150.4140625 C-59.68224304 146.94419758 -59.44645075 145.24389389 -59.3269043 140.71704102 C-58.63132295 134.84510721 -56.56154511 129.4021231 -54.59765625 123.8515625 C-54.14439723 122.53613603 -53.6923514 121.22029096 -53.24145508 119.90405273 C-51.84156475 115.83665777 -50.41055977 111.78064987 -48.97265625 107.7265625 C-48.74394836 107.08031921 -48.51524048 106.43407593 -48.27960205 105.76824951 C-45.91992745 99.10261787 -43.53718112 92.44542888 -41.140625 85.79296875 C-39.11808031 80.16319636 -37.21774711 74.5062791 -35.359375 68.8203125 C-34.22806405 65.42549924 -33.02089866 62.06059192 -31.8046875 58.6953125 C-31.39839111 57.5707666 -30.99209473 56.4462207 -30.57348633 55.28759766 C-29.7119891 52.90635858 -28.84853275 50.52582742 -27.9831543 48.14599609 C-25.61038313 41.55092701 -23.38374766 34.94135372 -21.34765625 28.234375 C-21.02404366 27.18101959 -21.02404366 27.18101959 -20.69389343 26.10638428 C-19.6465186 22.69673949 -18.62156336 19.283489 -17.63598633 15.85546875 C-14.15395202 4.45134189 -14.15395202 4.45134189 -8.65649414 0.58300781 C-5.48873476 -1.02819995 -3.36721266 -0.67919845 0 0 Z " fill="#595D9A" transform="translate(276.97265625,174.2734375)"/>
<path d="M0 0 C5.54361702 3.28510638 5.54361702 3.28510638 6.515625 6.9375 C6.70828099 10.57044153 6.39995839 12.37676387 4.390625 15.5078125 C1.61397015 18.40242981 -1.33093765 20.11025551 -4.875 21.875 C-5.52903809 22.21233154 -6.18307617 22.54966309 -6.85693359 22.8972168 C-8.89800093 23.94519339 -10.94726024 24.97509776 -13 26 C-13.65548828 26.3285498 -14.31097656 26.65709961 -14.98632812 26.99560547 C-17.97794354 28.49367727 -20.97288094 29.98319683 -23.9765625 31.45703125 C-27.00046054 32.95086684 -27.00046054 32.95086684 -29.7734375 34.69921875 C-32 36 -32 36 -34 36 C-34 36.66 -34 37.32 -34 38 C-33.14929932 38.26264648 -32.29859863 38.52529297 -31.42211914 38.79589844 C-25.8490638 40.75682509 -20.67752562 43.53555494 -15.43188477 46.22998047 C-13.4458907 47.24570861 -11.45087332 48.24198107 -9.45507812 49.23828125 C-8.1764788 49.8920482 -6.8984636 50.54695906 -5.62109375 51.203125 C-4.4705249 51.78739258 -3.31995605 52.37166016 -2.13452148 52.97363281 C1.80821165 55.5224828 5.28922433 58.51890728 6.62890625 63.1953125 C6.51806406 66.41625621 6.19717265 68.67959445 4.5 71.4375 C1.1365728 73.539642 -2.08882432 74.09395014 -6 74 C-8.70767197 72.92797107 -10.80880761 71.92487712 -13.25 70.4375 C-14.57206255 69.68079745 -15.89498899 68.92560236 -17.21875 68.171875 C-17.86328125 67.79740234 -18.5078125 67.42292969 -19.171875 67.03710938 C-21.64313052 65.63514711 -24.18670331 64.41154617 -26.75 63.1875 C-33.11567763 60.04802411 -39.21263208 56.46711291 -45.32714844 52.86987305 C-48.6675948 50.90810614 -51.95878445 49.01993096 -55.44921875 47.33203125 C-59.03264798 45.46074585 -59.79357596 43.83217049 -61 40 C-61.27485666 35.27746279 -60.9826953 32.19472149 -57.91796875 28.46875 C-54.56968547 25.63593202 -51.2682932 23.89144157 -47.3125 22.0625 C-41.89754992 19.51710149 -36.78131139 16.70815307 -31.6706543 13.59448242 C-26.95025465 10.77622389 -22.10781495 8.19678439 -17.25 5.625 C-16.24839844 5.07972656 -15.24679688 4.53445312 -14.21484375 3.97265625 C-13.24160156 3.45832031 -12.26835937 2.94398438 -11.265625 2.4140625 C-10.39711914 1.9495166 -9.52861328 1.4849707 -8.63378906 1.00634766 C-5.53299138 -0.17843989 -3.29556637 -0.31548543 0 0 Z " fill="#33668E" transform="translate(216,213)"/>
<path d="M0 0 C3.32803595 1.27565326 6.38782803 2.95871155 9.5 4.6875 C10.40129639 5.17355713 11.30259277 5.65961426 12.23120117 6.16040039 C20.2747557 10.52512526 28.2435617 15.03277422 36.18359375 19.58276367 C40.25497667 21.91315192 44.3062868 24.18189372 48.5390625 26.20703125 C52 28 52 28 54.0625 30.75 C55.20251763 34.70206112 55.47044919 38.15420981 54 42 C50.63805806 46.77457442 47.4001357 49.23483216 42.0625 51.625 C40.63994262 52.29790397 39.21948528 52.97525946 37.80078125 53.65625 C37.03459473 54.02363281 36.2684082 54.39101563 35.47900391 54.76953125 C30.82637447 57.07889233 26.29712735 59.61612017 21.75 62.125 C19.86887025 63.15304062 17.98737041 64.18040437 16.10546875 65.20703125 C13.71999335 66.50919242 11.33577825 67.81234737 8.96337891 69.13818359 C-0.57243726 74.46480038 -0.57243726 74.46480038 -5 74.1875 C-8.73485708 72.70911907 -10.08044249 71.53198582 -12 68 C-12.63427747 62.92578024 -12.09317249 60.03968328 -9 56 C-6.57061453 54.28941866 -3.97446096 52.99785777 -1.3125 51.6875 C-0.56589111 51.30722656 0.18071777 50.92695313 0.94995117 50.53515625 C2.51007976 49.74304305 4.07337991 48.95714827 5.63964844 48.17724609 C7.94791561 47.02597755 10.24448726 45.85406313 12.5390625 44.67578125 C13.96308993 43.94963426 15.38755202 43.22433888 16.8125 42.5 C17.47531982 42.16186279 18.13813965 41.82372559 18.82104492 41.4753418 C21.83417799 39.96702004 24.66844452 38.60421157 28 38 C28 37.34 28 36.68 28 36 C27.14929932 35.73735352 26.29859863 35.47470703 25.42211914 35.20410156 C19.8490638 33.24317491 14.67752562 30.46444506 9.43188477 27.77001953 C7.4458907 26.75429139 5.45087332 25.75801893 3.45507812 24.76171875 C2.1764788 24.1079518 0.8984636 23.45304094 -0.37890625 22.796875 C-2.10475952 21.92047363 -2.10475952 21.92047363 -3.86547852 21.02636719 C-7.8117692 18.47521735 -11.23663561 15.48317945 -12.6640625 10.83984375 C-12.58724411 7.09878806 -12.06262851 5.09109602 -9.9375 2 C-6.15097826 -0.57805736 -4.54587664 -0.48592288 0 0 Z " fill="#443377" transform="translate(291,213)"/>
<path d="M0 0 C0.8125 1.6875 0.8125 1.6875 1 4 C-1.25 6.4375 -1.25 6.4375 -4 9 C-6.01585408 11.95178633 -7.3479478 14.47891813 -8 18 C-7.01 18 -6.02 18 -5 18 C-4.34 16.68 -3.68 15.36 -3 14 C-3 17.89767805 -4.24028305 18.77018304 -6.75 21.6875 C-10.92126634 26.74313377 -13.66762297 31.62986987 -16.0625 37.6875 C-17 40 -17 40 -18.33984375 42.046875 C-31.00639507 64.57843452 -33.66485142 96.30084474 -27 121 C-26.690625 121.928125 -26.38125 122.85625 -26.0625 123.8125 C-25.09044208 126.72867377 -24.42062189 129.56627119 -23.75 132.5625 C-21.16155711 143.12650043 -15.96151626 152.63327745 -10.25 161.8125 C-9 164 -9 164 -9 166 C-8.01 166.33 -7.02 166.66 -6 167 C-6 167.66 -6 168.32 -6 169 C-5.34 169 -4.68 169 -4 169 C0 174.41176471 0 174.41176471 0 177 C0.66 177 1.32 177 2 177 C3.2265625 178.50390625 3.2265625 178.50390625 4.625 180.5625 C8.36212964 185.72286083 12.83189466 190.94396489 19 193 C20.13636263 194.16978507 21.27109292 195.3412347 22.39453125 196.5234375 C25.58851036 199.46096573 29.34454848 201.68249152 33 204 C32.67 204.99 32.34 205.98 32 207 C27.22259127 207.8268592 25.02250543 207.61724413 20.796875 205.06640625 C17.72172967 202.85461115 14.78405735 200.57061295 12 198 C12 197.34 12 196.68 12 196 C11.46503906 195.78730469 10.93007812 195.57460938 10.37890625 195.35546875 C-11.56934417 182.84965119 -26.96757245 150.891716 -33.6640625 127.70019531 C-36.97439941 115.27071829 -37.93086972 102.82632538 -38 90 C-38.01289062 88.7521875 -38.02578125 87.504375 -38.0390625 86.21875 C-37.18785834 57.14685403 -24.20066804 26.79864427 -5 5 C-4.34 5 -3.68 5 -3 5 C-2.690625 4.360625 -2.38125 3.72125 -2.0625 3.0625 C-1 1 -1 1 0 0 Z " fill="#BFE3DF" transform="translate(152,157)"/>
<path d="M0 0 C0 0.33 0 0.66 0 1 C-1.65 1.33 -3.3 1.66 -5 2 C-5 2.99 -5 3.98 -5 5 C-0.38 5 4.24 5 9 5 C9 5.33 9 5.66 9 6 C7.02 6.33 5.04 6.66 3 7 C3.495 8.485 3.495 8.485 4 10 C3.16597656 10.10957031 2.33195312 10.21914062 1.47265625 10.33203125 C-5.35348186 11.29378954 -11.54790151 12.62234227 -18 15 C-20.12312791 15.71392507 -22.24822381 16.42201769 -24.375 17.125 C-25.37273437 17.45757812 -26.37046875 17.79015625 -27.3984375 18.1328125 C-29.265625 18.75520833 -31.1328125 19.37760417 -33 20 C-33 19.01 -33 18.02 -33 17 C-33.515625 17.598125 -34.03125 18.19625 -34.5625 18.8125 C-38.38426634 22.2422903 -42.92365485 23.59865096 -47.6875 25.375 C-51.31372139 27.15390106 -52.56693003 28.86055487 -55 32 C-57 33 -59 34 -61 35 C-63.1582611 36.7918399 -65.21788189 38.65743596 -67.265625 40.57421875 C-69 42 -69 42 -71 42 C-71.28875 42.5775 -71.5775 43.155 -71.875 43.75 C-72.24625 44.4925 -72.6175 45.235 -73 46 C-73.226875 46.639375 -73.45375 47.27875 -73.6875 47.9375 C-75.44477398 50.69893054 -77.72602093 52.0789409 -80.44140625 53.8515625 C-82.15572515 54.93246934 -82.15572515 54.93246934 -83 57 C-83.99 57 -84.98 57 -86 57 C-85.38909774 50.52443609 -85.38909774 50.52443609 -83.5625 48.0625 C-82 47 -82 47 -80 47 C-79.88785156 46.45472656 -79.77570313 45.90945312 -79.66015625 45.34765625 C-77.77600732 38.1435574 -73.76416044 33.62664111 -68 29 C-67.34 29 -66.68 29 -66 29 C-66 28.34 -66 27.68 -66 27 C-64.03565277 25.37634424 -62.08194927 23.89810412 -60 22.4375 C-59.37424072 21.99639893 -58.74848145 21.55529785 -58.10375977 21.10083008 C-47.132313 13.50938645 -35.70044496 7.19760469 -23 3 C-21.81148438 2.59652344 -20.62296875 2.19304687 -19.3984375 1.77734375 C-12.42411701 -0.42546625 -7.19626903 -1.48888325 0 0 Z " fill="#ACD8E3" transform="translate(230,118)"/>
<path d="M0 0 C4.44165479 2.036086 9.0098412 3.43536689 13.6875 4.8125 C14.41259766 5.02696777 15.13769531 5.24143555 15.88476562 5.46240234 C19.90286611 6.61820581 23.85214977 7.53058367 28 8.125 C27.01 9.445 26.02 10.765 25 12.125 C30.46388907 14.82992705 34.93869012 15.64013719 40.99609375 15.85546875 C41.82963882 15.895616 42.6631839 15.93576324 43.52198792 15.97712708 C46.16009962 16.10135417 48.79857148 16.2072127 51.4375 16.3125 C53.23638364 16.3939656 55.03521315 16.47663584 56.83398438 16.56054688 C61.22215319 16.76263377 65.61074013 16.94826193 70 17.125 C70 17.455 70 17.785 70 18.125 C32.67373699 18.97007388 32.67373699 18.97007388 16 14.125 C15.24412598 13.91601074 14.48825195 13.70702148 13.70947266 13.49169922 C2.08361766 10.21801932 -8.69830078 5.44506087 -19 -0.875 C-19.33 -1.535 -19.66 -2.195 -20 -2.875 C-12.27685311 -5.99712321 -7.21071285 -3.396552 0 0 Z " fill="#DFD1EE" transform="translate(198,366.875)"/>
<path d="M0 0 C3 0 3 0 4.6875 1.5 C5.120625 1.995 5.55375 2.49 6 3 C6.99 2.67 7.98 2.34 9 2 C9.33 2.99 9.66 3.98 10 5 C10.66 5 11.32 5 12 5 C16 10.41176471 16 10.41176471 16 13 C16.66 13 17.32 13 18 13 C19.2265625 14.50390625 19.2265625 14.50390625 20.625 16.5625 C24.36212964 21.72286083 28.83189466 26.94396489 35 29 C36.13636263 30.16978507 37.27109292 31.3412347 38.39453125 32.5234375 C41.58851036 35.46096573 45.34454848 37.68249152 49 40 C48.67 40.99 48.34 41.98 48 43 C43.22259127 43.8268592 41.02250543 43.61724413 36.796875 41.06640625 C33.72172967 38.85461115 30.78405735 36.57061295 28 34 C28 33.34 28 32.68 28 32 C27.46503906 31.78730469 26.93007812 31.57460938 26.37890625 31.35546875 C23.09797144 29.48603627 20.58418191 26.96625125 17.9375 24.3125 C17.37329346 23.74813232 16.80908691 23.18376465 16.2277832 22.60229492 C0 5.94274043 0 5.94274043 0 0 Z " fill="#CBE0E6" transform="translate(136,321)"/>
<path d="M0 0 C0.66 0.66 1.32 1.32 2 2 C-0.06256961 7.78017881 -2.12557476 13.56020192 -4.18896484 19.34008789 C-4.88927676 21.30196033 -5.58947445 23.26387356 -6.28955078 25.22583008 C-7.30210023 28.06342409 -8.31500966 30.90088924 -9.328125 33.73828125 C-9.65462036 34.65291138 -9.98111572 35.5675415 -10.31750488 36.5098877 C-11.98100719 41.1653527 -13.65745601 45.815434 -15.359375 50.45703125 C-16.67932089 54.06749259 -17.87209739 57.69924595 -19 61.375 C-21.72886845 69.43614014 -21.72886845 69.43614014 -25 72 C-29.63529075 73.47123951 -33.00055044 73.36821826 -37.5625 71.6875 C-40.6917187 68.23733579 -40.5023773 66.60856615 -40.3894043 62.10473633 C-39.66919246 56.36245798 -37.74061844 50.97772779 -35.83740234 45.53808594 C-35.11843591 43.48122104 -34.42285825 41.41750833 -33.73046875 39.3515625 C-30.31258372 29.31258372 -30.31258372 29.31258372 -28 27 C-26.52701235 32.15545676 -26.98460627 36.06228536 -29 41 C-30.31866272 42.678298 -31.65080468 44.34614767 -33 46 C-33.91676795 48.50027622 -34.10477539 50.83820312 -34.4375 53.5 C-34.93593324 56.60136241 -35.56288745 58.30541398 -37 61 C-37.37668344 62.65740715 -37.72057545 64.32345271 -38 66 C-36.68 66.33 -35.36 66.66 -34 67 C-33.67 68.32 -33.34 69.64 -33 71 C-29.66272214 69.82744291 -27.22562513 68.81131596 -25 66 C-25 65.34 -25 64.68 -25 64 C-24.01 64 -23.02 64 -22 64 C-22.3403125 63.2265625 -22.3403125 63.2265625 -22.6875 62.4375 C-23.2322829 58.18819334 -20.86164041 54.72328082 -19 51 C-18.67 50.67 -18.34 50.34 -18 50 C-17.76636119 48.15108054 -17.58696365 46.29511969 -17.4375 44.4375 C-17.31181641 42.91962891 -17.31181641 42.91962891 -17.18359375 41.37109375 C-17.12300781 40.58863281 -17.06242187 39.80617188 -17 39 C-15.515 38.505 -15.515 38.505 -14 38 C-13.49288405 36.14057486 -13.00102645 34.27527906 -12.59765625 32.390625 C-11.52356996 28.09427986 -9.70310141 24.07812954 -8 20 C-7.33093076 18.33429637 -6.66360088 16.66788971 -6 15 C-6.99 14.67 -7.98 14.34 -9 14 C-8.67 13.34 -8.34 12.68 -8 12 C-7.03126953 11.82791016 -7.03126953 11.82791016 -6.04296875 11.65234375 C-5.36878906 11.43707031 -4.69460937 11.22179687 -4 11 C-2.89690441 8.98677354 -2.89690441 8.98677354 -2.3125 6.5625 C-1.00377358 2.00754717 -1.00377358 2.00754717 0 0 Z " fill="#B48BCA" transform="translate(258,253)"/>
<path d="M0 0 C4.61994697 2.28328573 9.23126778 4.58259039 13.83154297 6.90527344 C15.20959647 7.60097169 16.58871131 8.29457462 17.96923828 8.98535156 C19.73583889 9.8735552 21.49317791 10.78010839 23.25 11.6875 C24.26578125 12.20699219 25.2815625 12.72648437 26.328125 13.26171875 C29.83223505 15.54143947 32.47955826 17.94502047 33.53125 22.09765625 C33.47929829 25.36412009 33.22238169 27.63862975 31.5 30.4375 C28.1365728 32.539642 24.91117568 33.09395014 21 33 C18.29263391 31.92809218 16.19094297 30.92481175 13.75 29.4375 C12.43705252 28.68600494 11.12323912 27.93602085 9.80859375 27.1875 C9.16519043 26.81367188 8.52178711 26.43984375 7.85888672 26.0546875 C5.23260255 24.56459719 2.53024557 23.25173176 -0.1875 21.9375 C-6.30026849 18.91854087 -12.15428438 15.50328347 -18 12 C-17.01 11.34 -16.02 10.68 -15 10 C-13.68 10.66 -12.36 11.32 -11 12 C-11 11.34 -11 10.68 -11 10 C-9.02 10 -7.04 10 -5 10 C-5 10.66 -5 11.32 -5 12 C-5.66 12 -6.32 12 -7 12 C-5.63016497 15.16115776 -5.0109362 15.9927092 -2 18 C-0.00240186 17.96778068 1.99531154 17.93372639 3.9921875 17.87109375 C6.87858454 18.05640718 8.72505254 19.2937894 11 21 C10.34 21.33 9.68 21.66 9 22 C12.00450039 25.46673122 14.47812298 27.07716795 19 28 C21.62374655 27.18391223 21.62374655 27.18391223 24 26 C26 26 28 26 30 26 C29.505 24.576875 29.505 24.576875 29 23.125 C28 20 28 20 28 18 C27.113125 17.855625 26.22625 17.71125 25.3125 17.5625 C22.52882354 17.08980022 19.76516243 16.56929815 17 16 C17.33 14.68 17.66 13.36 18 12 C12.61779682 8.78013956 12.61779682 8.78013956 6.5 8.25 C5.675 8.4975 4.85 8.745 4 9 C3.67 7.02 3.34 5.04 3 3 C2.01 2.67 1.02 2.34 0 2 C0 1.34 0 0.68 0 0 Z " fill="#619CAE" transform="translate(189,254)"/>
<path d="M0 0 C0.66 0 1.32 0 2 0 C3.80161126 2.02302139 5.47243545 4.04704609 7.125 6.1875 C7.61564941 6.81881836 8.10629883 7.45013672 8.61181641 8.10058594 C15.50645515 17.11509567 21.13099819 26.75244967 26 37 C26.39445312 37.68964844 26.78890625 38.37929687 27.1953125 39.08984375 C28 41 28 41 27 44 C26.34 44.66 25.68 45.32 25 46 C23.06640625 45.9765625 23.06640625 45.9765625 21 45 C19.40234375 42.5234375 19.40234375 42.5234375 17.9375 39.375 C17.42703125 38.28960937 16.9165625 37.20421875 16.390625 36.0859375 C15.93171875 35.06757813 15.4728125 34.04921875 15 33 C14.66484375 32.27039063 14.3296875 31.54078125 13.984375 30.7890625 C12.70261344 27.91138213 11.61879905 25.09399527 11 22 C10.34 22 9.68 22 9 22 C7.97887604 20.34619117 6.98312181 18.67667805 6 17 C4.57617929 15.36300096 3.13829582 13.73814064 1.6875 12.125 C-1.97758121 7.66548406 -1.97758121 7.66548406 -2.07421875 4.796875 C-1.5 2.875 -1.5 2.875 0 0 Z " fill="#D2C7F0" transform="translate(349,159)"/>
<path d="M0 0 C5.54361702 3.28510638 5.54361702 3.28510638 6.515625 6.9375 C6.69887477 10.39306715 6.2081499 12.59316155 4.625 15.6875 C-1.2921891 20.90026183 -8.36690296 23.44510986 -16 25 C-16 24.34 -16 23.68 -16 23 C-15.34 23 -14.68 23 -14 23 C-14 21.68 -14 20.36 -14 19 C-13.34 19 -12.68 19 -12 19 C-12 19.99 -12 20.98 -12 22 C-11.37351563 21.6390625 -10.74703125 21.278125 -10.1015625 20.90625 C-9.28429687 20.4421875 -8.46703125 19.978125 -7.625 19.5 C-6.81289062 19.0359375 -6.00078125 18.571875 -5.1640625 18.09375 C-3 17 -3 17 -1 17 C-1 15.68 -1 14.36 -1 13 C-0.34 13 0.32 13 1 13 C1 9.7 1 6.4 1 3 C-2.41642759 2.74984127 -2.41642759 2.74984127 -6 3 C-6.66 3.99 -7.32 4.98 -8 6 C-10.625 6.6875 -10.625 6.6875 -13 7 C-13.33 7.99 -13.66 8.98 -14 10 C-15.3921875 10.185625 -15.3921875 10.185625 -16.8125 10.375 C-20.13925235 10.81533082 -20.13925235 10.81533082 -23 13 C-24.06246527 14.96752828 -25.07137808 16.96587579 -26 19 C-27.216875 18.95875 -28.43375 18.9175 -29.6875 18.875 C-34.94864672 18.90273891 -37.81598144 19.94753906 -41.8125 23.5 C-44.1851156 25.6035561 -45.95620712 26.39275477 -49.0625 27 C-53.23722539 27.81731668 -55.24753454 29.73144727 -58 33 C-58.33 32.01 -58.66 31.02 -59 30 C-55.6276791 26.1088605 -51.94459079 24.26780246 -47.375 22.125 C-41.94417514 19.55250401 -36.80157232 16.71829026 -31.66845703 13.59228516 C-26.94825927 10.77571335 -22.10690907 8.1963048 -17.25 5.625 C-16.24839844 5.07972656 -15.24679688 4.53445312 -14.21484375 3.97265625 C-13.24160156 3.45832031 -12.26835937 2.94398438 -11.265625 2.4140625 C-10.39711914 1.9495166 -9.52861328 1.4849707 -8.63378906 1.00634766 C-5.53299138 -0.17843989 -3.29556637 -0.31548543 0 0 Z " fill="#2E4067" transform="translate(216,213)"/>
<path d="M0 0 C9.49657888 3.37580362 18.64678424 11.20505442 26 18 C26 18.66 26 19.32 26 20 C27.32 20.66 28.64 21.32 30 22 C30 22.66 30 23.32 30 24 C30.66 24 31.32 24 32 24 C32 26.64 32 29.28 32 32 C27.6513455 31.49823217 25.13509501 28.86827841 22 26 C21 24.66666667 20 23.33333333 19 22 C18.01 21.67 17.02 21.34 16 21 C14.33333333 19.33333333 12.66666667 17.66666667 11 16 C10.071875 15.443125 9.14375 14.88625 8.1875 14.3125 C7.465625 13.879375 6.74375 13.44625 6 13 C6 12.34 6 11.68 6 11 C5.071875 10.731875 4.14375 10.46375 3.1875 10.1875 C0.23759634 9.08851629 -1.05615186 8.37581439 -3 6 C-1.68 5.34 -0.36 4.68 1 4 C0.67 2.68 0.34 1.36 0 0 Z " fill="#C4CBF0" transform="translate(317,133)"/>
<path d="M0 0 C0 3.24244455 -0.08730376 4.42201811 -2 7 C-4.31029085 7.74259349 -6.645752 8.411438 -9 9 C-9.66 9.66 -10.32 10.32 -11 11 C-11.825 11.144375 -12.65 11.28875 -13.5 11.4375 C-16.34936529 11.7765556 -16.34936529 11.7765556 -18 15 C-19.32 15 -20.64 15 -22 15 C-22.99 15.495 -22.99 15.495 -24 16 C-24.65213292 18.02463255 -24.65213292 18.02463255 -25 20 C-25.61875 20.12375 -26.2375 20.2475 -26.875 20.375 C-29.19120832 20.87197356 -29.19120832 20.87197356 -31 23 C-29.68 23.66 -28.36 24.32 -27 25 C-27 25.99 -27 26.98 -27 28 C-26.01 27.67 -25.02 27.34 -24 27 C-23.21625 27.185625 -22.4325 27.37125 -21.625 27.5625 C-18.41582062 28.09736323 -16.93723515 27.28033327 -14 26 C-12.68 26 -11.36 26 -10 26 C-9.67 23.69 -9.34 21.38 -9 19 C-7.68 19 -6.36 19 -5 19 C-4.67 19.66 -4.34 20.32 -4 21 C-3.01 21.33 -2.02 21.66 -1 22 C-4.64736244 25.0048219 -8.6740018 27.02064677 -12.875 29.125 C-13.56980469 29.48464844 -14.26460938 29.84429687 -14.98046875 30.21484375 C-18.96460971 32.21816887 -22.47774649 33.69497997 -27 34 C-30.52906067 32.39588152 -31.82772908 31.25840638 -34 28 C-34.47006331 22.9233163 -34.12105338 20.03755319 -31 16 C-28.52770298 14.27055103 -25.89057835 12.95610876 -23.1875 11.625 C-22.43863525 11.24287354 -21.68977051 10.86074707 -20.91821289 10.46704102 C-18.6187266 9.29772416 -16.3103147 8.14774616 -14 7 C-12.58809885 6.28863862 -11.17661933 5.57643962 -9.765625 4.86328125 C-6.51815025 3.22640848 -3.26201341 1.60774353 0 0 Z " fill="#7B5B9F" transform="translate(313,253)"/>
<path d="M0 0 C0.83917969 0.19980469 1.67835938 0.39960938 2.54296875 0.60546875 C3.42339844 0.80527344 4.30382812 1.00507813 5.2109375 1.2109375 C6.45810547 1.49904297 6.45810547 1.49904297 7.73046875 1.79296875 C9.72857537 2.13746989 11.7276929 2.47674098 13.73046875 2.79296875 C12.74046875 4.11296875 11.75046875 5.43296875 10.73046875 6.79296875 C16.19435782 9.4978958 20.66915887 10.30810594 26.7265625 10.5234375 C27.97688011 10.58365837 27.97688011 10.58365837 29.25245667 10.64509583 C31.89056837 10.76932292 34.52904023 10.87518145 37.16796875 10.98046875 C38.96685239 11.06193435 40.7656819 11.14460459 42.56445312 11.22851562 C46.95262194 11.43060252 51.34120888 11.61623068 55.73046875 11.79296875 C55.73046875 12.12296875 55.73046875 12.45296875 55.73046875 12.79296875 C16.40170163 13.68337971 16.40170163 13.68337971 -1.26953125 7.79296875 C-1.26953125 7.13296875 -1.26953125 6.47296875 -1.26953125 5.79296875 C-2.25953125 5.46296875 -3.24953125 5.13296875 -4.26953125 4.79296875 C-4.59953125 3.80296875 -4.92953125 2.81296875 -5.26953125 1.79296875 C-2.26953125 -0.20703125 -2.26953125 -0.20703125 0 0 Z " fill="#E0C2F2" transform="translate(212.26953125,372.20703125)"/>
<path d="M0 0 C0 0.33 0 0.66 0 1 C-1.98 1.33 -3.96 1.66 -6 2 C-5.505 3.485 -5.505 3.485 -5 5 C-6.25103516 5.16435547 -6.25103516 5.16435547 -7.52734375 5.33203125 C-14.35348186 6.29378954 -20.54790151 7.62234227 -27 10 C-29.12312791 10.71392507 -31.24822381 11.42201769 -33.375 12.125 C-34.37273437 12.45757812 -35.37046875 12.79015625 -36.3984375 13.1328125 C-38.265625 13.75520833 -40.1328125 14.37760417 -42 15 C-42 13.35 -42 11.7 -42 10 C-28.27624861 4.55525081 -14.98658806 -0.32663077 0 0 Z " fill="#C5E4F2" transform="translate(239,123)"/>
<path d="M0 0 C2.96189509 2.55518711 4.37278003 5.44137864 6.0625 8.9375 C6.56910156 9.97777344 7.07570313 11.01804688 7.59765625 12.08984375 C8.06042969 13.05019531 8.52320313 14.01054687 9 15 C9.61681641 16.08474609 9.61681641 16.08474609 10.24609375 17.19140625 C11 19 11 19 10 22 C9.34 22.66 8.68 23.32 8 24 C6.06640625 23.9765625 6.06640625 23.9765625 4 23 C2.40234375 20.5234375 2.40234375 20.5234375 0.9375 17.375 C0.42832031 16.29089844 -0.08085937 15.20679688 -0.60546875 14.08984375 C-1.29576172 12.56037109 -1.29576172 12.56037109 -2 11 C-2.34675781 10.25878906 -2.69351562 9.51757812 -3.05078125 8.75390625 C-4.31088998 5.97688939 -5 4.08695166 -5 1 C-3.35 1.33 -1.7 1.66 0 2 C0 1.34 0 0.68 0 0 Z " fill="#DEC5F4" transform="translate(366,181)"/>
<path d="M0 0 C1.32 0 2.64 0 4 0 C4.33 0.66 4.66 1.32 5 2 C6.1446875 1.7215625 6.1446875 1.7215625 7.3125 1.4375 C10 1 10 1 13 2 C14.13636263 3.16978507 15.27109292 4.3412347 16.39453125 5.5234375 C19.58851036 8.46096573 23.34454848 10.68249152 27 13 C26.67 13.99 26.34 14.98 26 16 C21.22259127 16.8268592 19.02250543 16.61724413 14.796875 14.06640625 C11.72172967 11.85461115 8.78405735 9.57061295 6 7 C6 6.34 6 5.68 6 5 C5.38125 4.731875 4.7625 4.46375 4.125 4.1875 C2 3 2 3 0 0 Z " fill="#D8DCEA" transform="translate(158,348)"/>
<path d="M0 0 C1.32 0 2.64 0 4 0 C4.33 0.66 4.66 1.32 5 2 C5.99 2.33 6.98 2.66 8 3 C4.35263756 6.0048219 0.3259982 8.02064677 -3.875 10.125 C-4.56980469 10.48464844 -5.26460938 10.84429687 -5.98046875 11.21484375 C-9.96600377 13.21886984 -13.47713461 14.68830693 -18 15 C-21.07832272 13.67072428 -22.58347259 12.69421235 -24.3125 9.8125 C-24.539375 9.214375 -24.76625 8.61625 -25 8 C-24.34 7.01 -23.68 6.02 -23 5 C-21.35 5.33 -19.7 5.66 -18 6 C-18 6.99 -18 7.98 -18 9 C-17.01 8.67 -16.02 8.34 -15 8 C-14.21625 8.185625 -13.4325 8.37125 -12.625 8.5625 C-9.41582062 9.09736323 -7.93723515 8.28033327 -5 7 C-3.68 7 -2.36 7 -1 7 C-0.67 4.69 -0.34 2.38 0 0 Z " fill="#9D6DB8" transform="translate(304,272)"/>
<path d="M0 0 C4.87600601 1.47643039 9.25136526 3.46596263 13.75 5.8125 C14.42160156 6.14314453 15.09320313 6.47378906 15.78515625 6.81445312 C18.86353894 8.42150461 20.76569535 9.59238238 22.515625 12.63671875 C23 15 23 15 22 17 C21.01 17 20.02 17 19 17 C19 16.01 19 15.02 19 14 C17.35 14.66 15.7 15.32 14 16 C14 13.36 14 10.72 14 8 C8.5411217 7.8607658 8.5411217 7.8607658 3.1875 8.6875 C1 9 1 9 -0.8125 7.8125 C-2 6 -2 6 -2 2 C-1.34 2 -0.68 2 0 2 C0 1.34 0 0.68 0 0 Z " fill="#292855" transform="translate(322,231)"/>
<path d="M0 0 C0.99 0.33 1.98 0.66 3 1 C3.25 3.75 3.25 3.75 3 7 C2.1028125 7.86625 2.1028125 7.86625 1.1875 8.75 C-2.64172826 12.68863478 -4 18.57037765 -4 24 C-4.66666667 25.66666667 -5.33333333 27.33333333 -6 29 C-6 29.99 -6 30.98 -6 32 C-6.66 32 -7.32 32 -8 32 C-7.34 33.32 -6.68 34.64 -6 36 C-7.62339805 37.70884005 -9.29319053 39.37446717 -11 41 C-11.66 41 -12.32 41 -13 41 C-12.33518041 35.99146276 -10.93845427 31.49998838 -9.27734375 26.7578125 C-9.01240616 25.98944061 -8.74746857 25.22106873 -8.47450256 24.42941284 C-7.63329148 21.99303985 -6.78550591 19.55901525 -5.9375 17.125 C-5.36349547 15.46629693 -4.78992316 13.80744423 -4.21679688 12.1484375 C-2.81619403 8.09720946 -1.40969322 4.0480734 0 0 Z M-6 27 C-5.01 27.33 -4.02 27.66 -3 28 C-3.99 28 -4.98 28 -6 28 C-6 27.67 -6 27.34 -6 27 Z " fill="#3A4470" transform="translate(259,193)"/>
<path d="M0 0 C-0.28617188 0.57105469 -0.57234375 1.14210937 -0.8671875 1.73046875 C-1.24101562 2.47941406 -1.61484375 3.22835937 -2 4 C-2.52980469 5.04607422 -2.52980469 5.04607422 -3.0703125 6.11328125 C-5.43065953 11.0350419 -6.46422874 14.54531232 -6 20 C-6.99 20.33 -7.98 20.66 -9 21 C-9.52924832 22.91852516 -10.04633536 24.84254057 -10.4609375 26.7890625 C-11.25785035 30.05756015 -12.60035112 32.94622062 -14 36 C-14.66 35.67 -15.32 35.34 -16 35 C-15.10633872 27.72025243 -12.97956756 21.12971423 -10.6875 14.1875 C-10.29626953 12.94806641 -9.90503906 11.70863281 -9.50195312 10.43164062 C-9.11330078 9.25150391 -8.72464844 8.07136719 -8.32421875 6.85546875 C-7.97447998 5.77934326 -7.62474121 4.70321777 -7.2644043 3.59448242 C-6 1 -6 1 -3.97973633 -0.4284668 C-2 -1 -2 -1 0 0 Z " fill="#557EB1" transform="translate(246,246)"/>
<path d="M0 0 C2.475 0.99 2.475 0.99 5 2 C5 1.34 5 0.68 5 0 C6.98 0 8.96 0 11 0 C11 0.66 11 1.32 11 2 C10.34 2 9.68 2 9 2 C10.36983503 5.16115776 10.9890638 5.9927092 14 8 C15.99759814 7.96778068 17.99531154 7.93372639 19.9921875 7.87109375 C22.87858454 8.05640718 24.72505254 9.2937894 27 11 C26.01 11.495 26.01 11.495 25 12 C25.33 12.99 25.66 13.98 26 15 C18.97642261 14.6980154 13.99835961 11.48765527 8.0625 7.9375 C7.09248047 7.36966797 6.12246094 6.80183594 5.12304688 6.21679688 C2.74249178 4.82129906 0.36864614 3.41558519 -2 2 C-1.34 1.34 -0.68 0.68 0 0 Z " fill="#5794AB" transform="translate(173,264)"/>
<path d="M0 0 C-0.350625 1.11375 -0.70125 2.2275 -1.0625 3.375 C-2.37239331 6.80264476 -2.37239331 6.80264476 -1 9 C-2.4375 11.625 -2.4375 11.625 -4 14 C-2.68 14.33 -1.36 14.66 0 15 C-1.65 15.66 -3.3 16.32 -5 17 C-7.88375157 14.11624843 -9.31825682 11.98885835 -9.5 7.9375 C-9 4 -9 4 -7.3125 1.5 C-4.62023779 -0.24633224 -3.14839906 -0.34982212 0 0 Z " fill="#31325A" transform="translate(288,214)"/>
<path d="M0 0 C0.66 0.66 1.32 1.32 2 2 C0.45324272 6.23639 -1.09504975 10.47221449 -2.64477539 14.70751953 C-3.17189217 16.14877076 -3.69858712 17.59017633 -4.22485352 19.03173828 C-4.98082739 21.10229443 -5.73831035 23.17229303 -6.49609375 25.2421875 C-6.73154404 25.88807831 -6.96699432 26.53396912 -7.20957947 27.19943237 C-8.05967931 29.51809859 -8.89455305 31.7891061 -10 34 C-10.66 34 -11.32 34 -12 34 C-10.94179752 27.43914463 -8.56234017 21.11019579 -6 15 C-6.99 14.67 -7.98 14.34 -9 14 C-8.67 13.34 -8.34 12.68 -8 12 C-7.03126953 11.82791016 -7.03126953 11.82791016 -6.04296875 11.65234375 C-5.36878906 11.43707031 -4.69460937 11.22179687 -4 11 C-2.89690441 8.98677354 -2.89690441 8.98677354 -2.3125 6.5625 C-1.00377358 2.00754717 -1.00377358 2.00754717 0 0 Z " fill="#7D87B9" transform="translate(258,253)"/>
<path d="M0 0 C0.33 0 0.66 0 1 0 C0.4266114 5.11436271 -0.72141482 9.68263407 -2.5625 14.5 C-2.82208496 15.18416992 -3.08166992 15.86833984 -3.34912109 16.57324219 C-5.32547274 21.61762246 -7.59831913 26.45898098 -10.125 31.25 C-10.61141968 32.1790918 -10.61141968 32.1790918 -11.10766602 33.12695312 C-13.01141348 36.61482319 -15.042757 39.34505295 -18 42 C-17.6875 39.125 -17.6875 39.125 -17 36 C-16.01 35.34 -15.02 34.68 -14 34 C-13.855625 33.05125 -13.71125 32.1025 -13.5625 31.125 C-13 28 -13 28 -11.125 26.1875 C-8.01508615 22.98611809 -7.19288577 19.22932227 -6 15 C-5.34 15 -4.68 15 -4 15 C-4 13.02 -4 11.04 -4 9 C-3.34 9 -2.68 9 -2 9 C-2.061875 7.88625 -2.061875 7.88625 -2.125 6.75 C-1.99601866 3.91241048 -1.42948778 2.41226062 0 0 Z " fill="#F3E2F9" transform="translate(380,283)"/>
<path d="M0 0 C3.21940995 0.45991571 6.02002401 1.00776441 9.0625 2.1875 C12.60283323 3.16674111 13.759348 2.53504568 17 1 C19 1 21 1 23 1 C23 1.99 23 2.98 23 4 C22.01 4.495 22.01 4.495 21 5 C21.33 5.66 21.66 6.32 22 7 C15.08126548 9.07562036 10.68278234 6.78112409 4.57373047 3.54077148 C3.04145809 2.70785143 1.51959114 1.85583715 0 1 C0 0.67 0 0.34 0 0 Z " fill="#68A7B9" transform="translate(196,279)"/>
<path d="M0 0 C2.0625 1.375 2.0625 1.375 4 4 C5.25614704 13.19886138 0.08901199 25.82197602 -4 34 C-4.66 34 -5.32 34 -6 34 C-6 32.02 -6 30.04 -6 28 C-5.34 28 -4.68 28 -4 28 C-3.7834375 26.700625 -3.7834375 26.700625 -3.5625 25.375 C-3.04166667 22.25 -2.52083333 19.125 -2 16 C-1.34 16 -0.68 16 0 16 C0.82622671 10.39436958 1.06795656 5.57710648 0 0 Z " fill="#2E2F57" transform="translate(279,176)"/>
<path d="M0 0 C1.13244141 0.47993408 2.26488281 0.95986816 3.43164062 1.4543457 C8.01269038 3.16607866 12.23760381 3.55671213 17.09375 3.73046875 C17.92588013 3.770616 18.75801025 3.81076324 19.61535645 3.85212708 C22.24318281 3.97613099 24.87136799 4.08211356 27.5 4.1875 C29.29432553 4.26898661 31.08859769 4.35165768 32.8828125 4.43554688 C37.25471094 4.63738908 41.62702475 4.82308634 46 5 C46 5.33 46 5.66 46 6 C41.45088115 6.07553459 36.90214633 6.1292363 32.35253906 6.16479492 C30.81276066 6.1796558 29.27302277 6.19995039 27.73339844 6.22631836 C16.78512156 6.40878964 6.68411522 5.42084729 -4 3 C-2.68 2.67 -1.36 2.34 0 2 C0 1.34 0 0.68 0 0 Z " fill="#EBD7F5" transform="translate(222,379)"/>
<path d="M0 0 C0.66 0 1.32 0 2 0 C2 0.99 2 1.98 2 3 C2.66 3.33 3.32 3.66 4 4 C-0.14267335 10.5906167 -7.30757059 13.46361214 -14.625 15.3125 C-15.73875 15.539375 -16.8525 15.76625 -18 16 C-18 15.34 -18 14.68 -18 14 C-17.34 14 -16.68 14 -16 14 C-16 12.68 -16 11.36 -16 10 C-15.34 10 -14.68 10 -14 10 C-14 10.99 -14 11.98 -14 13 C-13.06027344 12.45859375 -13.06027344 12.45859375 -12.1015625 11.90625 C-11.28429687 11.4421875 -10.46703125 10.978125 -9.625 10.5 C-8.81289062 10.0359375 -8.00078125 9.571875 -7.1640625 9.09375 C-5 8 -5 8 -3 8 C-3 6.68 -3 5.36 -3 4 C-2.34 4 -1.68 4 -1 4 C-0.67 2.68 -0.34 1.36 0 0 Z " fill="#345078" transform="translate(218,222)"/>
<path d="M0 0 C0.66 0.33 1.32 0.66 2 1 C1.67 1.99 1.34 2.98 1 4 C1 3.34 1 2.68 1 2 C0.01 2 -0.98 2 -2 2 C-3.28487562 3.47818817 -3.28487562 3.47818817 -4.375 5.375 C-6.55785414 8.65257858 -8.15378371 9.85653029 -12 11 C-12.66 11.66 -13.32 12.32 -14 13 C-13.93152577 9.57628837 -13.7497346 6.95477251 -11.5859375 4.19921875 C-7.84984825 0.751154 -5.25812979 -0.85597462 0 0 Z " fill="#27294F" transform="translate(276,174)"/>
<path d="M0 0 C0.66 0.33 1.32 0.66 2 1 C2.33 0.67 2.66 0.34 3 0 C4.67542976 0.28604898 6.34385343 0.61781233 8 1 C8.33 1.99 8.66 2.98 9 4 C6.88002166 5.19733988 4.75486324 6.38298713 2.625 7.5625 C2.02171875 7.90474609 1.4184375 8.24699219 0.796875 8.59960938 C-0.76978241 9.46127095 -2.38290862 10.23718183 -4 11 C-4.66 10.67 -5.32 10.34 -6 10 C-5.525625 9.2575 -5.05125 8.515 -4.5625 7.75 C-2.9368975 5.17532911 -2.9368975 5.17532911 -2.4375 2.75 C-2.2209375 1.88375 -2.2209375 1.88375 -2 1 C-1.34 0.67 -0.68 0.34 0 0 Z " fill="#6C489A" transform="translate(317,264)"/>
<path d="M0 0 C0 3.24244455 -0.08730376 4.42201811 -2 7 C-4.31029085 7.74259349 -6.645752 8.411438 -9 9 C-9.66 9.66 -10.32 10.32 -11 11 C-13.1640625 11.4140625 -13.1640625 11.4140625 -15.625 11.625 C-16.44226563 11.69976562 -17.25953125 11.77453125 -18.1015625 11.8515625 C-18.72804688 11.90054687 -19.35453125 11.94953125 -20 12 C-16.52177005 7.9359629 -12.48459497 6.00855237 -7.75 3.75 C-7.00492187 3.38648438 -6.25984375 3.02296875 -5.4921875 2.6484375 C-3.66501913 1.75827855 -1.83298166 0.8781261 0 0 Z " fill="#5F4788" transform="translate(313,253)"/>
<path d="M0 0 C0.66 0.66 1.32 1.32 2 2 C1.1028206 4.82013391 0.18375745 7.62949382 -0.75 10.4375 C-1.00265625 11.23994141 -1.2553125 12.04238281 -1.515625 12.86914062 C-1.7734375 13.63291016 -2.03125 14.39667969 -2.296875 15.18359375 C-2.52729492 15.89056396 -2.75771484 16.59753418 -2.99511719 17.32592773 C-4 19 -4 19 -6.10644531 19.73852539 C-6.73131836 19.82481201 -7.35619141 19.91109863 -8 20 C-7.649375 19.278125 -7.29875 18.55625 -6.9375 17.8125 C-5.87428085 14.62284254 -6.17982705 13.19867449 -7 10 C-7 8.68 -7 7.36 -7 6 C-6.01 6.33 -5.02 6.66 -4 7 C-4 6.34 -4 5.68 -4 5 C-3.01 5 -2.02 5 -1 5 C-1.33 3.68 -1.66 2.36 -2 1 C-1.34 0.67 -0.68 0.34 0 0 Z " fill="#4C7AA7" transform="translate(264,235)"/>
<path d="M0 0 C4.67105792 1.55701931 8.08705685 4.08447373 12 7 C11.67 7.99 11.34 8.98 11 10 C5.73499663 10.43155765 5.73499663 10.43155765 3 10 C0.58176569 7.35505622 0.04963581 5.7445372 -0.1875 2.1875 C-0.125625 1.465625 -0.06375 0.74375 0 0 Z " fill="#D2D0E6" transform="translate(173,354)"/>
<path d="M0 0 C9.9 0 19.8 0 30 0 C26 4 26 4 22.4609375 4.2421875 C21.09705243 4.1432658 19.7347887 4.01971583 18.375 3.875 C17.31345703 3.78520874 17.31345703 3.78520874 16.23046875 3.69360352 C10.74152066 3.1880754 5.3537258 2.32556192 0 1 C0 0.67 0 0.34 0 0 Z " fill="#F1DBFA" transform="translate(216,373)"/>
<path d="M0 0 C1.21205531 3.63616593 0.66898648 4.58869753 -0.65234375 8.10546875 C-1.01650391 9.08837891 -1.38066406 10.07128906 -1.75585938 11.08398438 C-2.34077148 12.62022461 -2.34077148 12.62022461 -2.9375 14.1875 C-3.32357422 15.22326172 -3.70964844 16.25902344 -4.10742188 17.32617188 C-5.06342444 19.88731454 -6.02789257 22.44493599 -7 25 C-9 22 -9 22 -8.625 19.5 C-8.41875 18.675 -8.2125 17.85 -8 17 C-8 16.01 -8 15.02 -8 14 C-7.67 13.01 -7.34 12.02 -7 11 C-6.34 11.33 -5.68 11.66 -5 12 C-4.80664062 11.38511719 -4.61328125 10.77023438 -4.4140625 10.13671875 C-4.15367187 9.32847656 -3.89328125 8.52023438 -3.625 7.6875 C-3.36976563 6.88699219 -3.11453125 6.08648437 -2.8515625 5.26171875 C-2 3 -2 3 0 0 Z " fill="#3C4D81" transform="translate(273,211)"/>
<path d="M0 0 C0.33 0 0.66 0 1 0 C1.02953635 4.22915147 1.04697584 8.45827572 1.0625 12.6875 C1.07087891 13.86634766 1.07925781 15.04519531 1.08789062 16.25976562 C1.10970358 24.22149544 0.73348042 32.07229225 0 40 C-0.33 40 -0.66 40 -1 40 C-2.90678173 10.07520107 -2.90678173 10.07520107 0 0 Z " fill="#DFF0EE" transform="translate(116,228)"/>
<path d="M0 0 C0.99 0.33 1.98 0.66 3 1 C4.91958262 9.39817396 5.22588024 17.40400201 5 26 C4.67 26 4.34 26 4 26 C2.89771304 21.59085217 2.92345464 17.51617599 3 13 C2.34 13 1.68 13 1 13 C0.67 8.71 0.34 4.42 0 0 Z " fill="#E8D0F4" transform="translate(380,219)"/>
<path d="M0 0 C4.10958767 1.45044271 7.43258745 3.51110752 11 6 C10.38125 6.12375 9.7625 6.2475 9.125 6.375 C6.80879168 6.87197356 6.80879168 6.87197356 5 9 C5.33 9.66 5.66 10.32 6 11 C2.22454612 9.90931332 -0.47043472 9.0916909 -3 6 C-1.68 5.34 -0.36 4.68 1 4 C0.67 2.68 0.34 1.36 0 0 Z " fill="#BED2F1" transform="translate(317,133)"/>
<path d="M0 0 C0.33 0.66 0.66 1.32 1 2 C1.66 2.33 2.32 2.66 3 3 C0.69 9.27 -1.62 15.54 -4 22 C-4.94644447 18.2142221 -4.9693628 16.04738616 -4.5625 12.25 C-4.46066406 11.26515625 -4.35882813 10.2803125 -4.25390625 9.265625 C-4.17011719 8.51796875 -4.08632812 7.7703125 -4 7 C-3.01 6.67 -2.02 6.34 -1 6 C-0.67 4.02 -0.34 2.04 0 0 Z " fill="#A987CA" transform="translate(245,285)"/>
<path d="M0 0 C3.5624827 -0.02913821 7.12493454 -0.04684529 10.6875 -0.0625 C12.19860352 -0.07506836 12.19860352 -0.07506836 13.74023438 -0.08789062 C14.71669922 -0.09111328 15.69316406 -0.09433594 16.69921875 -0.09765625 C18.04246216 -0.10551147 18.04246216 -0.10551147 19.4128418 -0.11352539 C22.03641759 0.00159802 24.44293053 0.41765715 27 1 C27 1.99 27 2.98 27 4 C21.62845011 5.22080679 21.62845011 5.22080679 18.6875 4.1875 C17 3 17 3 16 1 C14.845 1.165 13.69 1.33 12.5 1.5 C8.30092197 2.03238311 4.22936959 2.07552446 0 2 C0 1.34 0 0.68 0 0 Z " fill="#BDDDF3" transform="translate(240,122)"/>
<path d="M0 0 C2.33175302 7.92084043 -0.39738288 14.91206028 -4 22 C-4.66 21.67 -5.32 21.34 -6 21 C-5.42381249 15.85404946 -4.25256722 11.44921945 -2.4375 6.5625 C-1.98246094 5.32628906 -1.52742187 4.09007812 -1.05859375 2.81640625 C-0.70925781 1.88699219 -0.35992187 0.95757812 0 0 Z " fill="#6D85B0" transform="translate(236,260)"/>
<path d="M0 0 C-0.763125 0.45375 -1.52625 0.9075 -2.3125 1.375 C-4.98760271 2.99250396 -7.57129565 4.69738517 -10.125 6.5 C-13.94316153 8.49208428 -17.78948014 9.2202741 -22 10 C-18.91840572 6.71530729 -15.49687994 4.86241876 -11.5625 2.75 C-10.55993164 2.18539062 -10.55993164 2.18539062 -9.53710938 1.609375 C-5.88659617 -0.35879069 -3.95483511 -1.32787704 0 0 Z " fill="#D1E8F0" transform="translate(200,126)"/>
<path d="M0 0 C2.64956093 1.28445456 5.29453793 2.57709679 7.9375 3.875 C8.69224609 4.23980469 9.44699219 4.60460937 10.22460938 4.98046875 C11.30258789 5.51220703 11.30258789 5.51220703 12.40234375 6.0546875 C13.06741943 6.37937012 13.73249512 6.70405273 14.41772461 7.03857422 C16 8 16 8 17 10 C13.87709365 9.51421457 11.00419641 9.0013988 8 8 C5.85744207 8.38932856 5.85744207 8.38932856 4 9 C3.67 7.02 3.34 5.04 3 3 C2.01 2.67 1.02 2.34 0 2 C0 1.34 0 0.68 0 0 Z " fill="#4386A4" transform="translate(189,254)"/>
<path d="M0 0 C0.66 0.33 1.32 0.66 2 1 C0.06666454 4.57667061 -1.66230807 6.7053368 -5 9 C-5.474375 9.495 -5.94875 9.99 -6.4375 10.5 C-8.44877611 12.43082507 -10.52335182 13.72992401 -13 15 C-13.66 14.67 -14.32 14.34 -15 14 C-13.54782324 12.49403892 -12.08807139 10.99537896 -10.625 9.5 C-9.81289062 8.6646875 -9.00078125 7.829375 -8.1640625 6.96875 C-6 5 -6 5 -4 5 C-4 4.34 -4 3.68 -4 3 C-2 1.375 -2 1.375 0 0 Z " fill="#D2EAEB" transform="translate(168,142)"/>
<path d="M0 0 C0.78375 0.04125 1.5675 0.0825 2.375 0.125 C2.024375 1.23875 1.67375 2.3525 1.3125 3.5 C0.00260669 6.92764476 0.00260669 6.92764476 1.375 9.125 C1.045 9.785 0.715 10.445 0.375 11.125 C-0.285 11.125 -0.945 11.125 -1.625 11.125 C-1.625 10.465 -1.625 9.805 -1.625 9.125 C-2.285 9.125 -2.945 9.125 -3.625 9.125 C-4.25 5.75 -4.25 5.75 -4.625 2.125 C-2.625 0.125 -2.625 0.125 0 0 Z " fill="#232658" transform="translate(285.625,213.875)"/>
<path d="M0 0 C2.1875 -0.375 2.1875 -0.375 5 0 C6.99022836 1.83961648 8.38989899 3.79186148 10 6 C9.34 6.66 8.68 7.32 8 8 C7.01 8 6.02 8 5 8 C4.34 7.34 3.68 6.68 3 6 C2.34 5.67 1.68 5.34 1 5 C0.375 2.4375 0.375 2.4375 0 0 Z " fill="#C8D6E2" transform="translate(157,343)"/>
<path d="M0 0 C0.66 0.33 1.32 0.66 2 1 C1.814375 1.556875 1.62875 2.11375 1.4375 2.6875 C0.80563128 5.0427298 0.80563128 5.0427298 1.75 7.4375 C1.8325 8.283125 1.915 9.12875 2 10 C-0.4375 12.8125 -0.4375 12.8125 -3 15 C-4.43410153 11.21180727 -3.51009497 8.93478721 -2.0625 5.25 C-1.49208984 3.77273438 -1.49208984 3.77273438 -0.91015625 2.265625 C-0.60980469 1.51796875 -0.30945313 0.7703125 0 0 Z " fill="#9283BD" transform="translate(229,280)"/>
<path d="M0 0 C0.33 0.66 0.66 1.32 1 2 C1.66 2 2.32 2 3 2 C3.33 6.29 3.66 10.58 4 15 C1 14 1 14 -0.25 12 C-1.28909999 7.84360004 -0.67520668 4.1881063 0 0 Z " fill="#3C5E81" transform="translate(156,244)"/>
<path d="M0 0 C0 0.66 0 1.32 0 2 C-1.74985354 2.47970123 -3.49988891 2.95873924 -5.25 3.4375 C-6.22453125 3.70433594 -7.1990625 3.97117188 -8.203125 4.24609375 C-10.46372653 4.85544584 -12.72622009 5.44238255 -15 6 C-15 3 -15 3 -13 1 C-8.64197143 -0.01349502 -4.46062661 -0.08921253 0 0 Z " fill="#D8EDF9" transform="translate(234,128)"/>
<path d="M0 0 C0.66 0 1.32 0 2 0 C2.350625 0.928125 2.70125 1.85625 3.0625 2.8125 C5.59919019 6.9857645 7.4710174 7.46185496 12 9 C11.34 9.66 10.68 10.32 10 11 C8.02 10.34 6.04 9.68 4 9 C4 8.34 4 7.68 4 7 C2.02 7.66 0.04 8.32 -2 9 C-1.34 6.03 -0.68 3.06 0 0 Z " fill="#D7EFF3" transform="translate(154,253)"/>
<path d="M0 0 C0 3.03193506 -0.04081224 5.12243671 -1 8 C-2.95927063 9.7143618 -4.95880212 11.38405168 -7 13 C-7.33 13.99 -7.66 14.98 -8 16 C-8.66 16 -9.32 16 -10 16 C-8.61936434 12.14254559 -6.82183102 9.07512134 -4.4375 5.75 C-3.81746094 4.87859375 -3.19742188 4.0071875 -2.55859375 3.109375 C-1 1 -1 1 0 0 Z " fill="#CFEBE8" transform="translate(143,168)"/>
<path d="M0 0 C1.32 0 2.64 0 4 0 C4.33 0.66 4.66 1.32 5 2 C5.99 2.33 6.98 2.66 8 3 C4.87511433 5.52394612 1.68685613 7.39701907 -2 9 C-2.66 8.67 -3.32 8.34 -4 8 C-3.01 7.67 -2.02 7.34 -1 7 C-0.67 4.69 -0.34 2.38 0 0 Z " fill="#845AA8" transform="translate(304,272)"/>
<path d="M0 0 C1.31823302 0.59155331 2.62947051 1.19871463 3.9375 1.8125 C5.03384766 2.31716797 5.03384766 2.31716797 6.15234375 2.83203125 C8 4 8 4 9 7 C2.25 8.125 2.25 8.125 0 7 C0.20625 6.38125 0.4125 5.7625 0.625 5.125 C0.74875 4.42375 0.8725 3.7225 1 3 C0.34 2.34 -0.32 1.68 -1 1 C-0.67 0.67 -0.34 0.34 0 0 Z " fill="#4990AF" transform="translate(206,263)"/>
<path d="M0 0 C0.66 0.66 1.32 1.32 2 2 C1.29534531 3.98802578 0.56040302 5.96533728 -0.1875 7.9375 C-0.59355469 9.03964844 -0.99960937 10.14179688 -1.41796875 11.27734375 C-3 14 -3 14 -5.67578125 14.87890625 C-6.44277344 14.91886719 -7.20976562 14.95882813 -8 15 C-8 14.01 -8 13.02 -8 12 C-7.06220703 11.88978516 -7.06220703 11.88978516 -6.10546875 11.77734375 C-3.81922278 11.20447399 -3.81922278 11.20447399 -2.98828125 9.00390625 C-2.76527344 8.19824219 -2.54226562 7.39257812 -2.3125 6.5625 C-1.00377358 2.00754717 -1.00377358 2.00754717 0 0 Z " fill="#6884B7" transform="translate(258,253)"/>
<path d="M0 0 C0.99 0.33 1.98 0.66 3 1 C3.25 3.75 3.25 3.75 3 7 C1.125 9.0625 1.125 9.0625 -1 11 C-2.25436187 13.63222962 -2.25436187 13.63222962 -3 16 C-4.49828872 12.11764181 -3.43110582 9.56550712 -2.0625 5.75 C-1.68222656 4.67234375 -1.30195313 3.5946875 -0.91015625 2.484375 C-0.45962891 1.25460938 -0.45962891 1.25460938 0 0 Z " fill="#2E2F54" transform="translate(259,193)"/>
<path d="M0 0 C1.32 0 2.64 0 4 0 C2.89184175 3.21365891 2.01470446 3.9914224 -1 5.75 C-4 7 -4 7 -6 7 C-6.66 5.02 -7.32 3.04 -8 1 C-6.68 1.33 -5.36 1.66 -4 2 C-4.33 2.66 -4.66 3.32 -5 4 C-4.01 4 -3.02 4 -2 4 C-1.34 2.68 -0.68 1.36 0 0 Z " fill="#362F63" transform="translate(339,256)"/>
<path d="M0 0 C0.66 0 1.32 0 2 0 C1.49159115 4.82630375 0.13041456 7.8601092 -2.5625 11.875 C-3.52349609 13.32519531 -3.52349609 13.32519531 -4.50390625 14.8046875 C-4.99761719 15.52914063 -5.49132812 16.25359375 -6 17 C-6.6171875 15.1171875 -6.6171875 15.1171875 -7 13 C-5.66666667 11.66666667 -4.33333333 10.33333333 -3 9 C-2.34227572 5.97065509 -2.34227572 5.97065509 -2 3 C-1.34 2.01 -0.68 1.02 0 0 Z " fill="#EFD6F5" transform="translate(369,308)"/>
<path d="M0 0 C0.99 0.495 0.99 0.495 2 1 C2 1.66 2 2.32 2 3 C2.66 3 3.32 3 4 3 C4.18175781 3.65226562 4.36351563 4.30453125 4.55078125 4.9765625 C5.71400533 9.02100315 6.86174451 12.72348902 8.75 16.5 C9.1625 17.325 9.575 18.15 10 19 C9.67 19.66 9.34 20.32 9 21 C5.40272079 14.11976695 2.23313726 7.44379088 0 0 Z " fill="#E6F2F1" transform="translate(122,293)"/>
<path d="M0 0 C0.66 0.33 1.32 0.66 2 1 C1.71382812 1.56203125 1.42765625 2.1240625 1.1328125 2.703125 C-0.01415931 5.02870923 -1.07839794 7.37770201 -2.125 9.75 C-2.47820312 10.54921875 -2.83140625 11.3484375 -3.1953125 12.171875 C-3.46085938 12.77515625 -3.72640625 13.3784375 -4 14 C-5.12647116 10.62058652 -4.80736269 9.39092328 -4 6 C-3.814375 5.071875 -3.62875 4.14375 -3.4375 3.1875 C-3.293125 2.465625 -3.14875 1.74375 -3 1 C-2.01 0.67 -1.02 0.34 0 0 Z " fill="#4274A3" transform="translate(244,245)"/>
<path d="M0 0 C2.625 0.9375 2.625 0.9375 5 2 C5 1.34 5 0.68 5 0 C6.98 0 8.96 0 11 0 C11 0.66 11 1.32 11 2 C10.34 2 9.68 2 9 2 C8.67 2.99 8.34 3.98 8 5 C6.72125 4.71125 5.4425 4.4225 4.125 4.125 C3.40570313 3.96257812 2.68640625 3.80015625 1.9453125 3.6328125 C0 3 0 3 -2 1 C-1.34 0.67 -0.68 0.34 0 0 Z " fill="#3D7F9F" transform="translate(173,264)"/>
<path d="M0 0 C0.66 0.33 1.32 0.66 2 1 C2.625 4.0625 2.625 4.0625 3 7 C1.68 6.67 0.36 6.34 -1 6 C-1.33 7.32 -1.66 8.64 -2 10 C-2.66 7.03 -3.32 4.06 -4 1 C-3.01 1.33 -2.02 1.66 -1 2 C-0.67 1.34 -0.34 0.68 0 0 Z " fill="#DCBAEF" transform="translate(375,202)"/>
<path d="M0 0 C1.98 0 3.96 0 6 0 C6.66 1.32 7.32 2.64 8 4 C7.34 4.66 6.68 5.32 6 6 C3.375 5.625 3.375 5.625 1 5 C0.67 3.35 0.34 1.7 0 0 Z " fill="#A9C5EC" transform="translate(311,133)"/>
<path d="M0 0 C-2.36253009 2.36253009 -4.31227271 3.037848 -7.4375 4.1875 C-8.40558594 4.55230469 -9.37367188 4.91710937 -10.37109375 5.29296875 C-13 6 -13 6 -16 5 C-15 3 -15 3 -13.14453125 2.1484375 C-8.62151874 0.6483429 -4.83255247 -0.37173481 0 0 Z " fill="#EAD1F3" transform="translate(300,375)"/>
<path d="M0 0 C0.66 1.32 1.32 2.64 2 4 C1.113125 4.061875 0.22625 4.12375 -0.6875 4.1875 C-4.74081992 5.18171055 -6.29831749 6.90101124 -9 10 C-9.33 9.01 -9.66 8.02 -10 7 C-7.0094833 3.66442368 -4.06815373 1.84916079 0 0 Z " fill="#354D6F" transform="translate(167,236)"/>
<path d="M0 0 C0.8125 1.6875 0.8125 1.6875 1 4 C-1.63640136 7.16368164 -4.17207132 9.4404735 -8 11 C-7 9 -6 7 -5 5 C-4.34 5 -3.68 5 -3 5 C-2.690625 4.360625 -2.38125 3.72125 -2.0625 3.0625 C-1 1 -1 1 0 0 Z " fill="#D4EAE9" transform="translate(152,157)"/>
<path d="M0 0 C2.475 0.99 2.475 0.99 5 2 C5 2.66 5 3.32 5 4 C5.66 4.33 6.32 4.66 7 5 C4 7 4 7 1.9375 6.8125 C0 6 0 6 -2 3 C-1.34 2.01 -0.68 1.02 0 0 Z " fill="#AEC2EA" transform="translate(323,138)"/>
<path d="M0 0 C1 2 1 2 0.3515625 4.078125 C-1 6 -1 6 -3.1640625 6.609375 C-3.97617187 6.65578125 -4.78828125 6.7021875 -5.625 6.75 C-6.44226563 6.80671875 -7.25953125 6.8634375 -8.1015625 6.921875 C-8.72804688 6.94765625 -9.35453125 6.9734375 -10 7 C-7.0094833 3.66442368 -4.06815373 1.84916079 0 0 Z " fill="#6C4F94" transform="translate(303,258)"/>
<path d="M0 0 C3.96 1.98 3.96 1.98 8 4 C5 5 5 5 3 5 C3 5.66 3 6.32 3 7 C2.01 6.67 1.02 6.34 0 6 C-0.38218767 4.34385343 -0.71395102 2.67542976 -1 1 C-0.67 0.67 -0.34 0.34 0 0 Z " fill="#25244E" transform="translate(312,225)"/>
<path d="M0 0 C1.32 1.32 2.64 2.64 4 4 C3.525625 4.391875 3.05125 4.78375 2.5625 5.1875 C0.64820367 7.40808374 0.38733012 9.13375709 0 12 C-0.33 12 -0.66 12 -1 12 C-1.14285714 3.42857143 -1.14285714 3.42857143 0 0 Z " fill="#AF86C9" transform="translate(219,308)"/>
<path d="M0 0 C1.65 0.33 3.3 0.66 5 1 C5.33 1.99 5.66 2.98 6 4 C4.1875 5.0625 4.1875 5.0625 2 6 C1.01 5.67 0.02 5.34 -1 5 C-1.33 4.01 -1.66 3.02 -2 2 C-1.34 2 -0.68 2 0 2 C0 1.34 0 0.68 0 0 Z " fill="#5A3F8A" transform="translate(320,264)"/>
<path d="M0 0 C2 3 2 3 2.9375 5 C4.04407247 7.08295994 5.26406866 8.4218806 7 10 C5.35 10.33 3.7 10.66 2 11 C-0.32590854 7.36576791 -0.16265833 4.22911669 0 0 Z " fill="#FCF2FD" transform="translate(216,316)"/>
<path d="M0 0 C-0.33 0.99 -0.66 1.98 -1 3 C-2.98 3.33 -4.96 3.66 -7 4 C-7.33 2.68 -7.66 1.36 -8 0 C-4.71023192 -1.09658936 -3.28696233 -0.79953138 0 0 Z " fill="#A062C6" transform="translate(293,281)"/>
<path d="M0 0 C2.4375 1 2.4375 1 5 3 C5.76381481 5.72714162 5.85942648 8.14167178 6 11 C5.34 11 4.68 11 4 11 C3.896875 10.071875 3.79375 9.14375 3.6875 8.1875 C2.97429072 4.88080243 2.44405178 4.12526242 0 2 C0 1.34 0 0.68 0 0 Z " fill="#529AB2" transform="translate(214,267)"/>
<path d="M0 0 C0.66 0.33 1.32 0.66 2 1 C2 2.98 2 4.96 2 7 C0.68 6.67 -0.64 6.34 -2 6 C-2.33 4.68 -2.66 3.36 -3 2 C-2.01 1.34 -1.02 0.68 0 0 Z " fill="#C1BFEB" transform="translate(347,158)"/>
<path d="M0 0 C0.57234375 0.21527344 1.1446875 0.43054688 1.734375 0.65234375 C0.11299117 3.89511141 -3.01673094 4.3413865 -6.265625 5.65234375 C-7.255625 6.14734375 -7.255625 6.14734375 -8.265625 6.65234375 C-8.925625 5.99234375 -9.585625 5.33234375 -10.265625 4.65234375 C-9.02618224 3.78292881 -7.77355441 2.93228918 -6.515625 2.08984375 C-5.81953125 1.61417969 -5.1234375 1.13851562 -4.40625 0.6484375 C-2.265625 -0.34765625 -2.265625 -0.34765625 0 0 Z " fill="#C3E4F1" transform="translate(192.265625,136.34765625)"/>
<path d="M0 0 C2.475 0.495 2.475 0.495 5 1 C5.33 1.99 5.66 2.98 6 4 C8.50447516 5.21869929 8.50447516 5.21869929 11 6 C10.34 6.66 9.68 7.32 9 8 C5.535 6.02 5.535 6.02 2 4 C2 3.34 2 2.68 2 2 C1.34 2 0.68 2 0 2 C0 1.34 0 0.68 0 0 Z " fill="#39346B" transform="translate(308,241)"/>
<path d="M0 0 C0 0.99 0 1.98 0 3 C-0.94875 2.979375 -1.8975 2.95875 -2.875 2.9375 C-5.90666283 2.77448174 -5.90666283 2.77448174 -8 4 C-8.66 3.34 -9.32 2.68 -10 2 C-6.5980513 -0.09350689 -3.94727588 -0.17942163 0 0 Z " fill="#384466" transform="translate(216,213)"/>
<path d="M0 0 C0.99 0 1.98 0 3 0 C1.4169423 4.2742558 -1.50568404 6.26531794 -5 9 C-4.1875 6.0625 -4.1875 6.0625 -3 3 C-2.01 2.67 -1.02 2.34 0 2 C0 1.34 0 0.68 0 0 Z " fill="#EFD9F7" transform="translate(349,338)"/>
<path d="M0 0 C0.99 0 1.98 0 3 0 C5.1875 3 5.1875 3 7 6 C6.01 7.485 6.01 7.485 5 9 C4.16094435 7.87926138 3.32892169 6.75325453 2.5 5.625 C2.0359375 4.99851562 1.571875 4.37203125 1.09375 3.7265625 C0 2 0 2 0 0 Z " fill="#D6EAEC" transform="translate(136,321)"/>
<path d="M0 0 C0.66 0 1.32 0 2 0 C1.67 1.32 1.34 2.64 1 4 C0.67 2.68 0.34 1.36 0 0 Z M-1 4 C-0.34 4.33 0.32 4.66 1 5 C1 6.32 1 7.64 1 9 C-0.32 9 -1.64 9 -3 9 C-3.33 8.01 -3.66 7.02 -4 6 C-3.01 5.34 -2.02 4.68 -1 4 Z " fill="#F8FCF9" transform="translate(223,279)"/>
<path d="M0 0 C1.1446875 0.3403125 1.1446875 0.3403125 2.3125 0.6875 C0.3125 2.6875 0.3125 2.6875 -1.625 3.5625 C-4.06137353 4.89143102 -5.16287393 6.4005609 -6.6875 8.6875 C-6.09018456 3.31166107 -6.09018456 3.31166107 -4.4375 0.75 C-2.6875 -0.3125 -2.6875 -0.3125 0 0 Z " fill="#8659B3" transform="translate(286.6875,270.3125)"/>
<path d="M0 0 C1.32 0.33 2.64 0.66 4 1 C3.67 2.65 3.34 4.3 3 6 C1.35 5.67 -0.3 5.34 -2 5 C-2.33 4.01 -2.66 3.02 -3 2 C-2.01 2 -1.02 2 0 2 C0 1.34 0 0.68 0 0 Z " fill="#302F63" transform="translate(298,233)"/>
<path d="M0 0 C0 3 0 3 -1.875 5.1875 C-4 7 -4 7 -6 7 C-5.67 5.02 -5.34 3.04 -5 1 C-3.68 1 -2.36 1 -1 1 C-0.67 0.67 -0.34 0.34 0 0 Z " fill="#3E5485" transform="translate(252,227)"/>
<path d="M0 0 C1.23593891 3.70781672 0.5678132 4.67510253 -0.9375 8.1875 C-1.31777344 9.08855469 -1.69804687 9.98960937 -2.08984375 10.91796875 C-2.54037109 11.94857422 -2.54037109 11.94857422 -3 13 C-3.66 13 -4.32 13 -5 13 C-4.32116957 9.88452559 -3.25893098 7.14862279 -1.9375 4.25 C-1.57527344 3.45078125 -1.21304687 2.6515625 -0.83984375 1.828125 C-0.56269531 1.22484375 -0.28554688 0.6215625 0 0 Z " fill="#3A436C" transform="translate(273,211)"/>
<path d="M0 0 C2 2 2 2 2.125 4.625 C2.08375 5.40875 2.0425 6.1925 2 7 C1.01 6.67 0.02 6.34 -1 6 C-1.33 6.66 -1.66 7.32 -2 8 C-2 5.69 -2 3.38 -2 1 C-1.34 0.67 -0.68 0.34 0 0 Z " fill="#B1DDD6" transform="translate(124,282)"/>
<path d="M0 0 C2.03144641 0.93446535 4.03533587 1.93224776 6 3 C5.01 3.495 5.01 3.495 4 4 C4.33 4.99 4.66 5.98 5 7 C3.68 6.34 2.36 5.68 1 5 C1 4.34 1 3.68 1 3 C0.01 3 -0.98 3 -2 3 C-2 2.34 -2 1.68 -2 1 C-1.34 0.67 -0.68 0.34 0 0 Z " fill="#4897B4" transform="translate(194,272)"/>
<path d="M0 0 C3.465 1.485 3.465 1.485 7 3 C6.01 3.99 5.02 4.98 4 6 C2.68 5.34 1.36 4.68 0 4 C0 2.68 0 1.36 0 0 Z " fill="#35335B" transform="translate(327,233)"/>
<path d="M0 0 C0.99 0 1.98 0 3 0 C3.33 0.99 3.66 1.98 4 3 C3.67 3.66 3.34 4.32 3 5 C4.32 5.33 5.64 5.66 7 6 C5.35 6.66 3.7 7.32 2 8 C0.23537317 4.91190305 0 3.76687864 0 0 Z " fill="#2A2A5F" transform="translate(281,223)"/>
<path d="M0 0 C0.66 0 1.32 0 2 0 C1.01 2.97 0.02 5.94 -1 9 C-1.66 9 -2.32 9 -3 9 C-2.44271087 5.65626525 -1.64826111 2.96687001 0 0 Z " fill="#948ABD" transform="translate(249,278)"/>
<path d="M0 0 C1.31602523 0.61754259 2.62773556 1.24428742 3.9375 1.875 C4.66839844 2.22304688 5.39929688 2.57109375 6.15234375 2.9296875 C8 4 8 4 9 6 C7.35 6 5.7 6 4 6 C3.67 5.01 3.34 4.02 3 3 C2.01 2.67 1.02 2.34 0 2 C0 1.34 0 0.68 0 0 Z " fill="#4A809A" transform="translate(189,254)"/>
<path d="M0 0 C2 0 2 0 3.625 1.375 C5 3 5 3 5 5 C3.1875 5.6875 3.1875 5.6875 1 6 C-0.75 4.5625 -0.75 4.5625 -2 3 C-1.34 2.01 -0.68 1.02 0 0 Z " fill="#B7C0EE" transform="translate(337,149)"/>
<path d="M0 0 C0.66 0.33 1.32 0.66 2 1 C1.25 8.75 1.25 8.75 -1 11 C-2.31625194 8.36749612 -1.74813658 7.19820944 -1.0625 4.375 C-0.86785156 3.55773437 -0.67320312 2.74046875 -0.47265625 1.8984375 C-0.23869141 0.95871094 -0.23869141 0.95871094 0 0 Z " fill="#494367" transform="translate(344,246)"/>
<path d="M0 0 C0.66 1.32 1.32 2.64 2 4 C1.01 4.33 0.02 4.66 -1 5 C-1.66 5.66 -2.32 6.32 -3 7 C-3.33 5.35 -3.66 3.7 -4 2 C-2.68 1.34 -1.36 0.68 0 0 Z " fill="#3D6294" transform="translate(247,237)"/>
<path d="M0 0 C2.0625 0.4375 2.0625 0.4375 4 1 C3 4 3 4 -0.0625 5.6875 C-1.031875 6.120625 -2.00125 6.55375 -3 7 C-1.125 1.125 -1.125 1.125 0 0 Z " fill="#D4E4EC" transform="translate(177,226)"/>
<path d="M0 0 C0.33 0.99 0.66 1.98 1 3 C0.67 3.66 0.34 4.32 0 5 C-0.66 5 -1.32 5 -2 5 C-1.125 1.125 -1.125 1.125 0 0 Z M-4 5 C-3.34 5 -2.68 5 -2 5 C-2.33 6.65 -2.66 8.3 -3 10 C-3.33 10 -3.66 10 -4 10 C-4 8.35 -4 6.7 -4 5 Z " fill="#F8FBFB" transform="translate(274,219)"/>
<path d="M0 0 C-1.97420135 2.52259061 -2.96745642 2.9929808 -6.1875 3.6875 C-7.5796875 3.8421875 -7.5796875 3.8421875 -9 4 C-6.77642026 0.66463039 -4.04815944 -2.02407972 0 0 Z " fill="#9366B2" transform="translate(301,280)"/>
<path d="M0 0 C1.32 0.66 2.64 1.32 4 2 C3.67 3.98 3.34 5.96 3 8 C0.9375 5.6875 0.9375 5.6875 -1 3 C-0.67 2.01 -0.34 1.02 0 0 Z " fill="#3B71A4" transform="translate(257,241)"/>
<path d="M0 0 C0.66 0.66 1.32 1.32 2 2 C1.01 4.31 0.02 6.62 -1 9 C-1.99 7.68 -2.98 6.36 -4 5 C-3.01 5 -2.02 5 -1 5 C-1.33 3.68 -1.66 2.36 -2 1 C-1.34 0.67 -0.68 0.34 0 0 Z " fill="#496D99" transform="translate(264,235)"/>
<path d="M0 0 C1.98 0.66 3.96 1.32 6 2 C6 2.99 6 3.98 6 5 C5.34 5 4.68 5 4 5 C3.67 5.66 3.34 6.32 3 7 C2.01 4.69 1.02 2.38 0 0 Z " fill="#282851" transform="translate(304,221)"/>
<path d="M0 0 C0.99 0.99 1.98 1.98 3 3 C2 4 2 4 -1.5625 4.0625 C-2.696875 4.041875 -3.83125 4.02125 -5 4 C-3.36587557 2.29159719 -2.13093906 1.06546953 0 0 Z " fill="#51A1C1" transform="translate(212,280)"/>
<path d="M0 0 C5.75 1.75 5.75 1.75 8 4 C5.03 3.67 2.06 3.34 -1 3 C-0.67 2.01 -0.34 1.02 0 0 Z " fill="#DDF5F9" transform="translate(181,272)"/>
<path d="M0 0 C0.66 0.66 1.32 1.32 2 2 C1.01 4.31 0.02 6.62 -1 9 C-1.66 9 -2.32 9 -3 9 C-2.44271087 5.65626525 -1.64826111 2.96687001 0 0 Z " fill="#5D82AE" transform="translate(258,253)"/>
<path d="M0 0 C0 3.10551666 -0.5393715 4.35261084 -2 7 C-2.99 7 -3.98 7 -5 7 C-3.75023244 3.34683329 -3.32901247 2.21934164 0 0 Z " fill="#543C85" transform="translate(313,253)"/>
<path d="M0 0 C0.33 0.66 0.66 1.32 1 2 C1.66 2 2.32 2 3 2 C2.67 3.98 2.34 5.96 2 8 C1.01 8.33 0.02 8.66 -1 9 C-0.67 6.03 -0.34 3.06 0 0 Z " fill="#4A6686" transform="translate(156,244)"/>
<path d="M0 0 C0 3.20395416 -0.74335022 5.09399739 -2 8 C-2.99 8 -3.98 8 -5 8 C-3.8141763 4.62496331 -2.72426311 2.35277269 0 0 Z " fill="#DBEEEC" transform="translate(143,168)"/>
<path d="M0 0 C3.77545388 1.09068668 6.47043472 1.9083091 9 5 C8.01 5.33 7.02 5.66 6 6 C5.67 5.01 5.34 4.02 5 3 C3.35 3 1.7 3 0 3 C0 2.01 0 1.02 0 0 Z " fill="#CFE0F1" transform="translate(308,128)"/>
<path d="M0 0 C4.16138263 -0.08159574 7.9472484 0.01751476 12 1 C10 3 10 3 8.125 3.046875 C7.42375 2.94890625 6.7225 2.8509375 6 2.75 C4.948125 2.61851563 4.948125 2.61851563 3.875 2.484375 C2 2 2 2 0 0 Z " fill="#C1DFF6" transform="translate(268,124)"/>
<path d="M0 0 C0.33 0.66 0.66 1.32 1 2 C-2.67410785 3.17571451 -6.16929183 3.07366746 -10 3 C-9 1 -9 1 -7.25 0.375 C-4.79549443 -0.03408426 -2.4840589 -0.06900164 0 0 Z " fill="#BEE1EB" transform="translate(210,122)"/>
<path d="M0 0 C0.99 0.33 1.98 0.66 3 1 C2.34 3.31 1.68 5.62 1 8 C0.34 7.67 -0.32 7.34 -1 7 C-0.67 4.69 -0.34 2.38 0 0 Z " fill="#7B82B5" transform="translate(231,274)"/>
<path d="M0 0 C2.75 -0.25 2.75 -0.25 6 0 C8.375 2 8.375 2 10 4 C5.78087253 3.5205537 3.20336822 2.83374881 0 0 Z " fill="#51899F" transform="translate(176,268)"/>
<path d="M0 0 C0.66 0 1.32 0 2 0 C3.2077558 3.62326739 2.54311128 4.64146369 1 8 C-1 5 -1 5 -0.625 2.3125 C-0.41875 1.549375 -0.2125 0.78625 0 0 Z " fill="#425B8A" transform="translate(265,228)"/>
<path d="M0 0 C2.125 0.375 2.125 0.375 4 1 C2.35 2.65 0.7 4.3 -1 6 C-1.625 4.125 -1.625 4.125 -2 2 C-1.34 1.34 -0.68 0.68 0 0 Z " fill="#222448" transform="translate(283,214)"/>
<path d="M0 0 C1.32 0 2.64 0 4 0 C4 0.99 4 1.98 4 3 C2.02 3.33 0.04 3.66 -2 4 C-1.34 2.68 -0.68 1.36 0 0 Z " fill="#293A60" transform="translate(204,216)"/>
<path d="M0 0 C2 1.625 2 1.625 4 4 C4.25 7.25 4.25 7.25 4 10 C1.2027092 7.93243723 0.97307727 6.85559629 0.3125 3.3125 C0.209375 2.219375 0.10625 1.12625 0 0 Z " fill="#383958" transform="translate(279,176)"/>
<path d="M0 0 C0.66 0.33 1.32 0.66 2 1 C1.47731534 3.76276177 0.89130413 6.3260876 0 9 C-0.66 9 -1.32 9 -2 9 C-1.34 6.03 -0.68 3.06 0 0 Z " fill="#658BA9" transform="translate(239,250)"/>
<path d="M0 0 C0.33 0.66 0.66 1.32 1 2 C1.99 2.33 2.98 2.66 4 3 C3.34 3 2.68 3 2 3 C1.67 4.65 1.34 6.3 1 8 C0.34 7.34 -0.32 6.68 -1 6 C-0.625 2.875 -0.625 2.875 0 0 Z " fill="#3A4D7A" transform="translate(249,222)"/>
<path d="M0 0 C0.86625 0.556875 0.86625 0.556875 1.75 1.125 C-4 4.125 -4 4.125 -6.25 4.125 C-6.25 3.135 -6.25 2.145 -6.25 1.125 C-2.80384615 -1.09038462 -2.80384615 -1.09038462 0 0 Z " fill="#2A3C60" transform="translate(197.25,221.875)"/>
</svg>
